<svg xmlns="http://www.w3.org/2000/svg" viewBox="0 0 128 128"><defs><style>.cls-1{fill:none;}.cls-2{fill:#f43858;}.cls-3{fill:#ff435a;}.cls-4{fill:#ffdb8a;}.cls-5{fill:#fe8;}.cls-6{fill:#ffd833;}.cls-7{fill:#ffe631;}.cls-8{fill:#fff;}</style></defs><g id="Слой_2" data-name="Слой 2"><g id="_1st" data-name="1st"><g id="Слой_12" data-name="Слой 12"><rect class="cls-1" width="128" height="128"/></g><path class="cls-2" d="M105.86,112.73c-1.09.56-7.68.32-16.64-.54a1.18,1.18,0,0,0-.53.09,1.28,1.28,0,0,0-.43.26c-6.17,6.55-11,11.08-12.12,11.38a1.74,1.74,0,0,1-2.25-1.09L56.5,73.38a1.84,1.84,0,0,1,1-2.34L87.26,59.85a1.75,1.75,0,0,1,2.26,1.09l17.39,49.45a2.1,2.1,0,0,1,0,1.33A2.24,2.24,0,0,1,105.86,112.73Z"/><path class="cls-2" d="M51.86,123.92c-1.18-.29-6.09-4.86-12.41-11.48a1.37,1.37,0,0,0-.47-.28,1.28,1.28,0,0,0-.49-.09c-8.8.91-15.28,1.2-16.35.66a2.21,2.21,0,0,1-1-1,2.11,2.11,0,0,1-.06-1.39L38.48,60.94a1.75,1.75,0,0,1,2.26-1.09L70.45,71a1.84,1.84,0,0,1,1,2.34L54.11,122.83a2,2,0,0,1-.85,1A2.09,2.09,0,0,1,51.86,123.92Z"/><g id="Слой_4" data-name="Слой 4"><path class="cls-3" d="M28.19,89.89l-7.1,20.19a2.14,2.14,0,0,0,.06,1.4,2.22,2.22,0,0,0,1,.94c1.07.54,7.55.25,16.35-.66a1.28,1.28,0,0,1,.49.09,1.48,1.48,0,0,1,.47.28c6.32,6.62,11.23,11.19,12.41,11.48a2.09,2.09,0,0,0,1.4-.09,2,2,0,0,0,.85-1l5.79-16.47A47.58,47.58,0,0,1,28.19,89.89Z"/><path class="cls-3" d="M99.81,89.89a47.6,47.6,0,0,1-31.72,16.16l5.8,16.47a1.74,1.74,0,0,0,2.25,1.09c1.16-.3,6-4.83,12.12-11.38a1.46,1.46,0,0,1,.43-.26,1.32,1.32,0,0,1,.53-.09c9,.86,15.55,1.1,16.64.54a2.24,2.24,0,0,0,1-1,2.13,2.13,0,0,0,0-1.34Z"/></g><ellipse class="cls-4" cx="64" cy="52.89" rx="48" ry="48.89"/><ellipse class="cls-5" cx="64" cy="51.06" rx="46.21" ry="47.06"/><ellipse class="cls-6" cx="64" cy="53.34" rx="39.48" ry="40.2"/><ellipse class="cls-7" cx="64" cy="51.51" rx="37.68" ry="38.38"/><g id="Слой_3" data-name="Слой 3"><path class="cls-8" d="M62,44.9c-1.61,1.06-2.8,1.88-3.55,2.46a2.36,2.36,0,0,1-1.24.66c-.28,0-.59-.22-.91-.66a23.74,23.74,0,0,1-1.46-2.57,1.92,1.92,0,0,1-.21-.83,1.79,1.79,0,0,1,.86-1.31c.86-.62,1.77-1.24,2.72-1.86s1.77-1.17,2.45-1.65l3.55-2.41a2.09,2.09,0,0,1,1.35-.44,1,1,0,0,1,.64.16c.07,0,.4.26,1,.66s.86.77.86,1.1l0,7.51q-.27,21.33-.16,24c0,.81-.34,1.21-1,1.21l-2.85.22a1.45,1.45,0,0,1-1.24-.58,2.21,2.21,0,0,1-.43-1.34c0-.55,0-3.81.11-9.79s.2-10.71.27-14.22c0-.3-.13-.44-.38-.44Z"/></g></g></g></svg>