<svg xmlns="http://www.w3.org/2000/svg" viewBox="0 0 128 128"><defs><style>.cls-1{fill:none;}.cls-2{fill:#f43858;}.cls-3{fill:#ff435a;}.cls-4{fill:#f7bc5c;}.cls-5{fill:#ffc969;}.cls-6{fill:#f9973e;}.cls-7{fill:#ffa748;}.cls-8{fill:#fff;}</style></defs><g id="Слой_2" data-name="Слой 2"><g id="_3rd" data-name="3rd"><g id="Слой_14" data-name="Слой 14"><rect class="cls-1" width="128" height="128"/></g><path class="cls-2" d="M105.86,112.73c-1.09.56-7.68.32-16.64-.54a1.18,1.18,0,0,0-.53.09,1.28,1.28,0,0,0-.43.26c-6.17,6.55-11,11.08-12.12,11.38a1.74,1.74,0,0,1-2.25-1.09L56.5,73.38a1.84,1.84,0,0,1,1-2.34L87.26,59.85a1.75,1.75,0,0,1,2.26,1.09l17.39,49.45a2.1,2.1,0,0,1,0,1.33A2.24,2.24,0,0,1,105.86,112.73Z"/><path class="cls-2" d="M51.86,123.92c-1.18-.29-6.09-4.86-12.41-11.48a1.37,1.37,0,0,0-.47-.28,1.28,1.28,0,0,0-.49-.09c-8.8.91-15.28,1.2-16.35.66a2.21,2.21,0,0,1-1-1,2.11,2.11,0,0,1-.06-1.39L38.48,60.94a1.75,1.75,0,0,1,2.26-1.09L70.45,71a1.84,1.84,0,0,1,1,2.34L54.11,122.83a2,2,0,0,1-.85,1A2.09,2.09,0,0,1,51.86,123.92Z"/><g id="Слой_4_копия2_" data-name="Слой 4 (копия2)"><path class="cls-3" d="M28.19,89.89l-7.1,20.19a2.14,2.14,0,0,0,.06,1.4,2.22,2.22,0,0,0,1,.94c1.07.54,7.55.25,16.35-.66a1.28,1.28,0,0,1,.49.09,1.48,1.48,0,0,1,.47.28c6.32,6.62,11.23,11.19,12.41,11.48a2.09,2.09,0,0,0,1.4-.09,2,2,0,0,0,.85-1l5.79-16.47A47.58,47.58,0,0,1,28.19,89.89Z"/><path class="cls-3" d="M99.81,89.89a47.6,47.6,0,0,1-31.72,16.16l5.8,16.47a1.74,1.74,0,0,0,2.25,1.09c1.16-.3,6-4.83,12.12-11.38a1.46,1.46,0,0,1,.43-.26,1.32,1.32,0,0,1,.53-.09c9,.86,15.55,1.1,16.64.54a2.24,2.24,0,0,0,1-1,2.13,2.13,0,0,0,0-1.34Z"/></g><ellipse class="cls-4" cx="64" cy="52.89" rx="48" ry="48.89"/><ellipse class="cls-5" cx="64" cy="51.06" rx="46.21" ry="47.06"/><ellipse class="cls-6" cx="64" cy="53.34" rx="39.48" ry="40.2"/><ellipse class="cls-7" cx="64" cy="51.51" rx="37.68" ry="38.38"/><g id="Слой_3_копия2_" data-name="Слой 3 (копия2)"><path class="cls-8" d="M56.71,48.9l1.07-1.42c.22-.3.72-.95,1.51-2a28,28,0,0,1,2-2.36.53.53,0,0,0,.16-.41c0-.16-.21-.24-.64-.24l-4.26.11-1.24,0a1.43,1.43,0,0,1-1-.33,1.19,1.19,0,0,1-.27-.87c0-1.69,0-2.93.1-3.73a1.33,1.33,0,0,1,.17-.44q2-.06,13.62-.06a4.57,4.57,0,0,1,1.42.22c.24.11.33.44.3,1V40a1,1,0,0,1-.22.94c-1.07,1.42-2.31,3-3.71,4.66L64.46,47.2l-.27.39c-.11.14-.25.33-.43.54a10.47,10.47,0,0,1,2.45,1.18,11,11,0,0,1,3,2.94,8.16,8.16,0,0,1,1.45,5q0,5.93-2,9a9.61,9.61,0,0,1-4.12,4,10,10,0,0,1-3.55.88,9.51,9.51,0,0,1-4.45-1A9.26,9.26,0,0,1,53.5,67.6a7.56,7.56,0,0,1-1.48-3,1.27,1.27,0,0,1,0-.58,1,1,0,0,1,.24-.47c.61-.65,1.6-1.6,3-2.85a.74.74,0,0,1,.49-.27c.21,0,.39.16.53.49q1.73,4.17,4.26,4.17a4.07,4.07,0,0,0,3.15-1.48A6,6,0,0,0,65,59.54q0-3.67-1.46-5.37A4.44,4.44,0,0,0,60,52.46l-3.33.06s-.09-.2-.14-.6a10.76,10.76,0,0,1-.08-1.32A3.4,3.4,0,0,1,56.71,48.9Z"/></g></g></g></svg>